<svg xmlns="http://www.w3.org/2000/svg" version="1.1" xmlns:xlink="http://www.w3.org/1999/xlink" xmlns:svgjs="http://svgjs.com/svgjs" width="512" height="512" x="0" y="0" viewBox="0 0 64 64" style="enable-background:new 0 0 512 512" xml:space="preserve" class=""><g><path d="M20 58.492a1 1 0 0 1-1-1c0-3.309 2.691-6 6-6a1 1 0 1 1 0 2c-2.206 0-4 1.794-4 4a1 1 0 0 1-1 1z" fill="#f36800" data-original="#000000" class=""></path><path d="M28 53.492h-3a1 1 0 1 1 0-2h3a1 1 0 1 1 0 2zM20 62.492a1 1 0 0 1-1-1v-4a1 1 0 1 1 2 0v4a1 1 0 0 1-1 1z" fill="#f36800" data-original="#000000" class=""></path><path d="M21 63.492c-1.103 0-2-.897-2-2 0-.531.418-.914.948-.943.561-.022.992.416 1.052.942a1 1 0 0 1 0 2.001zM44 58.492a1 1 0 0 1-1-1c0-2.206-1.794-4-4-4a1 1 0 1 1 0-2c3.309 0 6 2.691 6 6a1 1 0 0 1-1 1z" fill="#f36800" data-original="#000000" class=""></path><path d="M39 53.492h-3a1 1 0 1 1 0-2h3a1 1 0 1 1 0 2zM44 62.492a1 1 0 0 1-1-1v-4a1 1 0 1 1 2 0v4a1 1 0 0 1-1 1z" fill="#f36800" data-original="#000000" class=""></path><path d="M43 63.492a1 1 0 1 1 0-2 1 1 0 1 1 2 0c0 1.103-.897 2-2 2z" fill="#f36800" data-original="#000000" class=""></path><path d="M43 63.492H21a1 1 0 1 1 0-2h22a1 1 0 1 1 0 2zM28 53.492a1 1 0 0 1-1-1v-3.936a1 1 0 1 1 2 0v3.936a1 1 0 0 1-1 1zM36 53.492a1 1 0 0 1-1-1v-3.936a1 1 0 1 1 2 0v3.936a1 1 0 0 1-1 1z" fill="#f36800" data-original="#000000" class=""></path><path d="M32 50.492c-5.514 0-10-4.485-10-9.999a1 1 0 1 1 2 0c0 4.411 3.589 7.999 8 7.999s8-3.588 8-7.999a1 1 0 1 1 2 0c0 5.514-4.486 9.999-10 9.999z" fill="#f36800" data-original="#000000" class=""></path><path d="M23 41.542a1 1 0 0 1-1-1V36.49a1 1 0 1 1 2 0v4.052a1 1 0 0 1-1 1zM41 41.493a1 1 0 0 1-1-1V36.49a1 1 0 1 1 2 0v4.003a1 1 0 0 1-1 1zM31.999 55.493c-.15 0-.303-.034-.446-.105l-4-2.001a1 1 0 0 1 .895-1.789l4 2.001a1 1 0 0 1-.449 1.894z" fill="#f36800" data-original="#000000" class=""></path><path d="M32.001 55.493a1 1 0 0 1-.449-1.895l4-2.001a1 1 0 0 1 .895 1.789l-4 2.001a.99.99 0 0 1-.446.106z" fill="#f36800" data-original="#000000" class=""></path><path d="M32 63.492a1 1 0 0 1-1-1v-7.999a1 1 0 1 1 2 0v7.999a1 1 0 0 1-1 1zM43.002 37.493H21a1 1 0 1 1 0-2h22.002a1 1 0 1 1 0 2zM34 34.493h-4a1 1 0 0 1-1-1v-4a1 1 0 0 1 1-1h4a1 1 0 0 1 1 1v4a1 1 0 0 1-1 1zm-3-2h2v-2h-2z" fill="#f36800" data-original="#000000" class=""></path><path d="M34 30.493h-4a1 1 0 0 1-1-1v-4.999a1 1 0 0 1 1-1h4a1 1 0 0 1 1 1v4.999a1 1 0 0 1-1 1zm-3-2h2v-2.999h-2z" fill="#f36800" data-original="#000000" class=""></path><path d="M23 34.487a1 1 0 0 1-1-1c0-4.411 3.589-8 8-8a1 1 0 1 1 0 2c-3.309 0-6 2.691-6 6a1 1 0 0 1-1 1z" fill="#f36800" data-original="#000000" class=""></path><path d="M23 37.49a1 1 0 0 1-1-1v-3.003a1 1 0 1 1 2 0v3.003a1 1 0 0 1-1 1zM41 34.487a1 1 0 0 1-1-1c0-3.309-2.691-6-6-6a1 1 0 1 1 0-2c4.411 0 8 3.589 8 8a1 1 0 0 1-1 1z" fill="#f36800" data-original="#000000" class=""></path><path d="M41 37.49a1 1 0 0 1-1-1v-3.003a1 1 0 1 1 2 0v3.003a1 1 0 0 1-1 1zM3 34.488a1 1 0 0 1-1-1v-2.867a1 1 0 1 1 2 0v2.867a1 1 0 0 1-1 1zM17 34.488a1 1 0 0 1-1-1v-2.994a1 1 0 1 1 2 0v2.994a1 1 0 0 1-1 1zM1 47.488a1 1 0 0 1-1-1c0-2.206 1.794-4 4-4a1 1 0 1 1 0 2c-1.103 0-2 .897-2 2a1 1 0 0 1-1 1z" fill="#f36800" data-original="#000000" class=""></path><path d="M7 44.494H4a1 1 0 1 1 0-2h3a1 1 0 1 1 0 2zM1 51.492a1 1 0 0 1-1-1v-4.004a1 1 0 1 1 2 0v4.004a1 1 0 0 1-1 1zM19 47.488a1 1 0 0 1-1-1c0-1.103-.897-2-2-2a1 1 0 1 1 0-2c2.206 0 4 1.794 4 4a1 1 0 0 1-1 1z" fill="#f36800" data-original="#000000" class=""></path><path d="M16 44.494h-3a1 1 0 1 1 0-2h3a1 1 0 1 1 0 2zM19 51.492a1 1 0 0 1-1-1v-4.004a1 1 0 1 1 2 0v4.004a1 1 0 0 1-1 1z" fill="#f36800" data-original="#000000" class=""></path><path d="M19 51.492H1a1 1 0 1 1 0-2h18a1 1 0 1 1 0 2zM7 44.494a1 1 0 0 1-1-1V39.81a1 1 0 1 1 2 0v3.685a.999.999 0 0 1-1 .999zM13 44.488a1 1 0 0 1-1-1V39.81a1 1 0 1 1 2 0v3.679a.999.999 0 0 1-1 .999z" fill="#f36800" data-original="#000000" class=""></path><path d="M10 41.483c-4.411 0-8-3.588-8-7.999a1 1 0 1 1 2 0c0 3.308 2.691 5.999 6 5.999s6-2.691 6-5.999a1 1 0 1 1 2 0c0 4.412-3.589 7.999-8 7.999zM19 31.493H1.002a1 1 0 1 1 0-2H19a1 1 0 1 1 0 2zM12 28.493H8a1 1 0 0 1-1-1v-2.999a1 1 0 0 1 1-1h4a1 1 0 0 1 1 1v2.999a1 1 0 0 1-1 1zm-3-2h2v-.999H9z" fill="#f36800" data-original="#000000" class=""></path><path d="M12 25.494H8a1 1 0 0 1-1-1v-3.998a1 1 0 0 1 1-1h4a1 1 0 0 1 1 1v3.998a1 1 0 0 1-1 1zm-3-2h2v-1.998H9z" fill="#f36800" data-original="#000000" class=""></path><path d="M3 28.489a1 1 0 0 1-1-1c0-3.309 2.691-6 6-6a1 1 0 1 1 0 2c-2.206 0-4 1.794-4 4a1 1 0 0 1-1 1z" fill="#f36800" data-original="#000000" class=""></path><path d="M3.002 31.49a1 1 0 0 1-1-1v-3.003a1 1 0 1 1 2 0v3.003a1 1 0 0 1-1 1zM17 28.489a1 1 0 0 1-1-1c0-2.206-1.794-4-4-4a1 1 0 1 1 0-2c3.309 0 6 2.691 6 6a1 1 0 0 1-1 1z" fill="#f36800" data-original="#000000" class=""></path><path d="M16.998 31.49a1 1 0 0 1-1-1v-3.003a1 1 0 1 1 2 0v3.003a1 1 0 0 1-1 1zM9.999 46.492c-.19 0-.383-.055-.554-.168l-3-1.998a1 1 0 1 1 1.11-1.664l3 1.998a1 1 0 0 1-.556 1.832z" fill="#f36800" data-original="#000000" class=""></path><path d="M10.001 46.492a1 1 0 0 1-.556-1.832l3-1.998a.999.999 0 1 1 1.11 1.664l-3 1.998a.996.996 0 0 1-.554.168z" fill="#f36800" data-original="#000000" class=""></path><path d="M10 51.524a1 1 0 0 1-1-1v-5.032a1 1 0 1 1 2 0v5.032a1 1 0 0 1-1 1zM47 34.488a1 1 0 0 1-1-1v-2.867a1 1 0 1 1 2 0v2.867a1 1 0 0 1-1 1zM61 34.488a1 1 0 0 1-1-1v-2.994a1 1 0 1 1 2 0v2.994a1 1 0 0 1-1 1zM45 47.488a1 1 0 0 1-1-1c0-2.206 1.794-4 4-4a1 1 0 1 1 0 2c-1.103 0-2 .897-2 2a1 1 0 0 1-1 1z" fill="#f36800" data-original="#000000" class=""></path><path d="M51 44.494h-3a1 1 0 1 1 0-2h3a1 1 0 1 1 0 2zM45 51.492a1 1 0 0 1-1-1v-4.004a1 1 0 1 1 2 0v4.004a1 1 0 0 1-1 1zM63 47.488a1 1 0 0 1-1-1c0-1.103-.897-2-2-2a1 1 0 1 1 0-2c2.206 0 4 1.794 4 4a1 1 0 0 1-1 1z" fill="#f36800" data-original="#000000" class=""></path><path d="M60 44.494h-3a1 1 0 1 1 0-2h3a1 1 0 1 1 0 2zM63 51.492a1 1 0 0 1-1-1v-4.004a1 1 0 1 1 2 0v4.004a1 1 0 0 1-1 1z" fill="#f36800" data-original="#000000" class=""></path><path d="M63 51.492H45a1 1 0 1 1 0-2h18a1 1 0 1 1 0 2zM51 44.494a1 1 0 0 1-1-1V39.81a1 1 0 1 1 2 0v3.685a.999.999 0 0 1-1 .999zM57 44.488a1 1 0 0 1-1-1V39.81a1 1 0 1 1 2 0v3.679a.999.999 0 0 1-1 .999z" fill="#f36800" data-original="#000000" class=""></path><path d="M54 41.483c-4.411 0-8-3.588-8-7.999a1 1 0 1 1 2 0c0 3.308 2.691 5.999 6 5.999s6-2.691 6-5.999a1 1 0 1 1 2 0c0 4.412-3.589 7.999-8 7.999zM62.998 31.493H45a1 1 0 1 1 0-2h17.998a1 1 0 1 1 0 2zM56 28.493h-4a1 1 0 0 1-1-1v-2.999a1 1 0 0 1 1-1h4a1 1 0 0 1 1 1v2.999a1 1 0 0 1-1 1zm-3-2h2v-.999h-2z" fill="#f36800" data-original="#000000" class=""></path><path d="M56 25.494h-4a1 1 0 0 1-1-1v-3.998a1 1 0 0 1 1-1h4a1 1 0 0 1 1 1v3.998a1 1 0 0 1-1 1zm-3-2h2v-1.998h-2z" fill="#f36800" data-original="#000000" class=""></path><path d="M47 28.489a1 1 0 0 1-1-1c0-3.309 2.691-6 6-6a1 1 0 1 1 0 2c-2.206 0-4 1.794-4 4a1 1 0 0 1-1 1z" fill="#f36800" data-original="#000000" class=""></path><path d="M47.002 31.49a1 1 0 0 1-1-1v-3.003a1 1 0 1 1 2 0v3.003a1 1 0 0 1-1 1zM61 28.489a1 1 0 0 1-1-1c0-2.206-1.794-4-4-4a1 1 0 1 1 0-2c3.309 0 6 2.691 6 6a1 1 0 0 1-1 1z" fill="#f36800" data-original="#000000" class=""></path><path d="M60.998 31.49a1 1 0 0 1-1-1v-3.003a1 1 0 1 1 2 0v3.003a1 1 0 0 1-1 1zM53.999 46.492c-.19 0-.383-.055-.554-.168l-3-1.998a1 1 0 1 1 1.11-1.664l3 1.998a1 1 0 0 1-.556 1.832z" fill="#f36800" data-original="#000000" class=""></path><path d="M54.001 46.492a1 1 0 0 1-.556-1.832l3-1.998a1 1 0 1 1 1.11 1.664l-3 1.998a.996.996 0 0 1-.554.168z" fill="#f36800" data-original="#000000" class=""></path><path d="M54 51.524a1 1 0 0 1-1-1v-5.032a1 1 0 1 1 2 0v5.032a1 1 0 0 1-1 1zM31.85 20.496c-4.958 0-8.992-4.034-8.992-8.992a1 1 0 1 1 2 0 7 7 0 0 0 6.992 6.992c3.856 0 6.994-3.137 6.994-6.992a1 1 0 1 1 2 0c0 4.958-4.035 8.992-8.994 8.992z" fill="#f36800" data-original="#000000" class=""></path><path d="M39.85 12.505a1 1 0 0 1-1-1c0-4.961-4.035-8.997-8.996-8.997a1 1 0 1 1 0-2c6.063 0 10.996 4.934 10.996 10.997a1 1 0 0 1-1 1z" fill="#f36800" data-original="#000000" class=""></path><path d="M23.852 8.51a1 1 0 1 1 0-2c2.757 0 5-2.243 5-5.001a1 1 0 1 1 2 0c0 3.86-3.141 7.001-7 7.001z" fill="#f36800" data-original="#000000" class=""></path><path d="M23.852 12.504a1 1 0 0 1-1-1V7.51a1 1 0 1 1 2 0v3.994a1 1 0 0 1-1 1zM31.85 17.496a6 6 0 0 1-5.992-5.934 1.06 1.06 0 0 1-.006-.107V9.984a1 1 0 0 1 .665-.942 8.03 8.03 0 0 0 4.738-4.508 1 1 0 0 1 1.259-.563 8.018 8.018 0 0 1 5.334 7.488c0 .028-.001.062-.004.095a6.001 6.001 0 0 1-5.994 5.942zm-3.998-6.097c.004.037.006.074.006.104a3.997 3.997 0 0 0 3.992 3.992 3.998 3.998 0 0 0 3.994-3.992c0-.024.001-.053.004-.081a6.013 6.013 0 0 0-3.18-5.204 10.04 10.04 0 0 1-4.816 4.444z" fill="#f36800" data-original="#000000" class=""></path></g></svg>